<mxfile host="app.diagrams.net" modified="2024-07-14T21:21:19.261Z" agent="Mozilla/5.0 (Windows NT 10.0; Win64; x64) AppleWebKit/537.36 (KHTML, like Gecko) Chrome/126.0.0.0 Safari/537.36" etag="1l1QI_drFi864LcTnmsP" version="24.6.5" type="google">
  <diagram name="PÃ¡gina-1" id="KJKZ2FR3BgtUfzLf-DWD">
    <mxGraphModel grid="1" page="0" gridSize="10" guides="1" tooltips="1" connect="1" arrows="1" fold="1" pageScale="1" pageWidth="827" pageHeight="1169" math="0" shadow="0">
      <root>
        <mxCell id="0" />
        <mxCell id="1" parent="0" />
        <mxCell id="LHL9gRUES2-h29DBD2v1-20" style="edgeStyle=none;shape=connector;rounded=0;orthogonalLoop=1;jettySize=auto;html=1;exitX=0.5;exitY=1;exitDx=0;exitDy=0;entryX=1;entryY=0.5;entryDx=0;entryDy=0;strokeColor=default;align=center;verticalAlign=middle;fontFamily=Helvetica;fontSize=11;fontColor=default;labelBackgroundColor=default;endArrow=none;endFill=0;" edge="1" parent="1" source="LHL9gRUES2-h29DBD2v1-3" target="LHL9gRUES2-h29DBD2v1-19">
          <mxGeometry relative="1" as="geometry" />
        </mxCell>
        <mxCell id="LHL9gRUES2-h29DBD2v1-59" style="edgeStyle=none;shape=connector;rounded=0;orthogonalLoop=1;jettySize=auto;html=1;exitX=0.377;exitY=-0.042;exitDx=0;exitDy=0;entryX=1;entryY=0.5;entryDx=0;entryDy=0;strokeColor=default;align=center;verticalAlign=middle;fontFamily=Helvetica;fontSize=11;fontColor=default;labelBackgroundColor=default;endArrow=none;endFill=0;exitPerimeter=0;" edge="1" parent="1" source="LHL9gRUES2-h29DBD2v1-3" target="LHL9gRUES2-h29DBD2v1-55">
          <mxGeometry relative="1" as="geometry" />
        </mxCell>
        <mxCell id="LHL9gRUES2-h29DBD2v1-60" style="edgeStyle=none;shape=connector;rounded=0;orthogonalLoop=1;jettySize=auto;html=1;exitX=0.25;exitY=0;exitDx=0;exitDy=0;entryX=1;entryY=0.5;entryDx=0;entryDy=0;strokeColor=default;align=center;verticalAlign=middle;fontFamily=Helvetica;fontSize=11;fontColor=default;labelBackgroundColor=default;endArrow=none;endFill=0;" edge="1" parent="1" source="LHL9gRUES2-h29DBD2v1-3" target="LHL9gRUES2-h29DBD2v1-62">
          <mxGeometry relative="1" as="geometry">
            <mxPoint x="-460" y="105" as="targetPoint" />
          </mxGeometry>
        </mxCell>
        <mxCell id="LHL9gRUES2-h29DBD2v1-63" style="edgeStyle=none;shape=connector;rounded=0;orthogonalLoop=1;jettySize=auto;html=1;exitX=0;exitY=0.5;exitDx=0;exitDy=0;entryX=1;entryY=0.5;entryDx=0;entryDy=0;strokeColor=default;align=center;verticalAlign=middle;fontFamily=Helvetica;fontSize=11;fontColor=default;labelBackgroundColor=default;endArrow=none;endFill=0;" edge="1" parent="1" source="LHL9gRUES2-h29DBD2v1-3" target="LHL9gRUES2-h29DBD2v1-58">
          <mxGeometry relative="1" as="geometry" />
        </mxCell>
        <mxCell id="LHL9gRUES2-h29DBD2v1-3" value="Clientes" style="whiteSpace=wrap;html=1;align=center;" vertex="1" parent="1">
          <mxGeometry x="-400" y="200" width="100" height="40" as="geometry" />
        </mxCell>
        <mxCell id="LHL9gRUES2-h29DBD2v1-31" style="edgeStyle=none;shape=connector;rounded=0;orthogonalLoop=1;jettySize=auto;html=1;exitX=0.5;exitY=0;exitDx=0;exitDy=0;entryX=0.5;entryY=1;entryDx=0;entryDy=0;strokeColor=default;align=center;verticalAlign=middle;fontFamily=Helvetica;fontSize=11;fontColor=default;labelBackgroundColor=default;endArrow=none;endFill=0;" edge="1" parent="1">
          <mxGeometry relative="1" as="geometry">
            <mxPoint x="29.86" y="440" as="sourcePoint" />
            <mxPoint x="29.86" y="370" as="targetPoint" />
          </mxGeometry>
        </mxCell>
        <mxCell id="LHL9gRUES2-h29DBD2v1-41" value="&lt;b style=&quot;font-size: 12px;&quot;&gt;(1,1)&lt;/b&gt;" style="edgeLabel;html=1;align=center;verticalAlign=middle;resizable=0;points=[];fontFamily=Helvetica;fontSize=11;fontColor=default;labelBackgroundColor=default;" connectable="0" vertex="1" parent="LHL9gRUES2-h29DBD2v1-31">
          <mxGeometry x="0.1744" y="-1" relative="1" as="geometry">
            <mxPoint x="-21" as="offset" />
          </mxGeometry>
        </mxCell>
        <mxCell id="LHL9gRUES2-h29DBD2v1-107" style="edgeStyle=none;shape=connector;rounded=0;orthogonalLoop=1;jettySize=auto;html=1;exitX=0;exitY=0.75;exitDx=0;exitDy=0;strokeColor=default;align=center;verticalAlign=middle;fontFamily=Helvetica;fontSize=11;fontColor=default;labelBackgroundColor=default;endArrow=none;endFill=0;" edge="1" parent="1" source="LHL9gRUES2-h29DBD2v1-5" target="LHL9gRUES2-h29DBD2v1-104">
          <mxGeometry relative="1" as="geometry" />
        </mxCell>
        <mxCell id="LHL9gRUES2-h29DBD2v1-108" style="edgeStyle=none;shape=connector;rounded=0;orthogonalLoop=1;jettySize=auto;html=1;exitX=0;exitY=1;exitDx=0;exitDy=0;entryX=1;entryY=0;entryDx=0;entryDy=0;strokeColor=default;align=center;verticalAlign=middle;fontFamily=Helvetica;fontSize=11;fontColor=default;labelBackgroundColor=default;endArrow=none;endFill=0;" edge="1" parent="1" source="LHL9gRUES2-h29DBD2v1-5" target="LHL9gRUES2-h29DBD2v1-112">
          <mxGeometry relative="1" as="geometry">
            <mxPoint x="-46.7157287525381" y="514.3933982822018" as="targetPoint" />
          </mxGeometry>
        </mxCell>
        <mxCell id="LHL9gRUES2-h29DBD2v1-109" style="edgeStyle=none;shape=connector;rounded=0;orthogonalLoop=1;jettySize=auto;html=1;exitX=0.25;exitY=1;exitDx=0;exitDy=0;entryX=0.5;entryY=0;entryDx=0;entryDy=0;strokeColor=default;align=center;verticalAlign=middle;fontFamily=Helvetica;fontSize=11;fontColor=default;labelBackgroundColor=default;endArrow=none;endFill=0;" edge="1" parent="1" source="LHL9gRUES2-h29DBD2v1-5" target="LHL9gRUES2-h29DBD2v1-105">
          <mxGeometry relative="1" as="geometry" />
        </mxCell>
        <mxCell id="LHL9gRUES2-h29DBD2v1-5" value="Editoras" style="whiteSpace=wrap;html=1;align=center;" vertex="1" parent="1">
          <mxGeometry x="-20" y="440" width="100" height="40" as="geometry" />
        </mxCell>
        <mxCell id="LHL9gRUES2-h29DBD2v1-13" style="rounded=0;orthogonalLoop=1;jettySize=auto;html=1;exitX=0;exitY=0.5;exitDx=0;exitDy=0;endArrow=none;endFill=0;entryX=1;entryY=0.5;entryDx=0;entryDy=0;" edge="1" parent="1" target="LHL9gRUES2-h29DBD2v1-12">
          <mxGeometry relative="1" as="geometry">
            <mxPoint x="-20" y="21.71" as="sourcePoint" />
            <mxPoint x="-230" y="21.71" as="targetPoint" />
          </mxGeometry>
        </mxCell>
        <mxCell id="LHL9gRUES2-h29DBD2v1-15" value="&lt;font style=&quot;font-size: 12px;&quot;&gt;&lt;b style=&quot;&quot;&gt;(0,N)&lt;/b&gt;&lt;/font&gt;" style="edgeLabel;html=1;align=center;verticalAlign=middle;resizable=0;points=[];fontFamily=Helvetica;fontSize=11;fontColor=default;labelBackgroundColor=default;" connectable="0" vertex="1" parent="LHL9gRUES2-h29DBD2v1-13">
          <mxGeometry x="0.04" y="2" relative="1" as="geometry">
            <mxPoint x="-4" y="-14" as="offset" />
          </mxGeometry>
        </mxCell>
        <mxCell id="LHL9gRUES2-h29DBD2v1-26" style="edgeStyle=none;shape=connector;rounded=0;orthogonalLoop=1;jettySize=auto;html=1;exitX=0.5;exitY=1;exitDx=0;exitDy=0;entryX=0.5;entryY=0;entryDx=0;entryDy=0;strokeColor=default;align=center;verticalAlign=middle;fontFamily=Helvetica;fontSize=11;fontColor=default;labelBackgroundColor=default;endArrow=none;endFill=0;" edge="1" parent="1" source="LHL9gRUES2-h29DBD2v1-7" target="LHL9gRUES2-h29DBD2v1-23">
          <mxGeometry relative="1" as="geometry" />
        </mxCell>
        <mxCell id="LHL9gRUES2-h29DBD2v1-50" value="&lt;b style=&quot;font-size: 12px;&quot;&gt;(1,N)&lt;/b&gt;" style="edgeLabel;html=1;align=center;verticalAlign=middle;resizable=0;points=[];fontFamily=Helvetica;fontSize=11;fontColor=default;labelBackgroundColor=default;" connectable="0" vertex="1" parent="LHL9gRUES2-h29DBD2v1-26">
          <mxGeometry x="-0.1207" y="2" relative="1" as="geometry">
            <mxPoint x="-22" y="2" as="offset" />
          </mxGeometry>
        </mxCell>
        <mxCell id="LHL9gRUES2-h29DBD2v1-80" style="edgeStyle=none;shape=connector;rounded=0;orthogonalLoop=1;jettySize=auto;html=1;exitX=0;exitY=0;exitDx=0;exitDy=0;strokeColor=default;align=center;verticalAlign=middle;fontFamily=Helvetica;fontSize=11;fontColor=default;labelBackgroundColor=default;endArrow=none;endFill=0;" edge="1" parent="1" source="LHL9gRUES2-h29DBD2v1-7" target="LHL9gRUES2-h29DBD2v1-79">
          <mxGeometry relative="1" as="geometry" />
        </mxCell>
        <mxCell id="LHL9gRUES2-h29DBD2v1-85" style="edgeStyle=none;shape=connector;rounded=0;orthogonalLoop=1;jettySize=auto;html=1;exitX=0.5;exitY=0;exitDx=0;exitDy=0;entryX=0.5;entryY=1;entryDx=0;entryDy=0;strokeColor=default;align=center;verticalAlign=middle;fontFamily=Helvetica;fontSize=11;fontColor=default;labelBackgroundColor=default;endArrow=none;endFill=0;" edge="1" parent="1" source="LHL9gRUES2-h29DBD2v1-7" target="LHL9gRUES2-h29DBD2v1-84">
          <mxGeometry relative="1" as="geometry" />
        </mxCell>
        <mxCell id="LHL9gRUES2-h29DBD2v1-86" style="edgeStyle=none;shape=connector;rounded=0;orthogonalLoop=1;jettySize=auto;html=1;exitX=0.75;exitY=0;exitDx=0;exitDy=0;entryX=0;entryY=1;entryDx=0;entryDy=0;strokeColor=default;align=center;verticalAlign=middle;fontFamily=Helvetica;fontSize=11;fontColor=default;labelBackgroundColor=default;endArrow=none;endFill=0;" edge="1" parent="1" source="LHL9gRUES2-h29DBD2v1-7" target="LHL9gRUES2-h29DBD2v1-83">
          <mxGeometry relative="1" as="geometry" />
        </mxCell>
        <mxCell id="LHL9gRUES2-h29DBD2v1-7" value="Pedido&amp;nbsp;" style="shape=ext;margin=3;double=1;whiteSpace=wrap;html=1;align=center;" vertex="1" parent="1">
          <mxGeometry x="-20" y="2" width="100" height="40" as="geometry" />
        </mxCell>
        <mxCell id="LHL9gRUES2-h29DBD2v1-28" style="edgeStyle=none;shape=connector;rounded=0;orthogonalLoop=1;jettySize=auto;html=1;exitX=0.5;exitY=0;exitDx=0;exitDy=0;entryX=0.5;entryY=1;entryDx=0;entryDy=0;strokeColor=default;align=center;verticalAlign=middle;fontFamily=Helvetica;fontSize=11;fontColor=default;labelBackgroundColor=default;endArrow=none;endFill=0;" edge="1" parent="1" source="LHL9gRUES2-h29DBD2v1-8" target="LHL9gRUES2-h29DBD2v1-23">
          <mxGeometry relative="1" as="geometry" />
        </mxCell>
        <mxCell id="LHL9gRUES2-h29DBD2v1-51" value="&lt;b style=&quot;font-size: 12px;&quot;&gt;(1,N)&lt;/b&gt;" style="edgeLabel;html=1;align=center;verticalAlign=middle;resizable=0;points=[];fontFamily=Helvetica;fontSize=11;fontColor=default;labelBackgroundColor=default;" connectable="0" vertex="1" parent="LHL9gRUES2-h29DBD2v1-28">
          <mxGeometry x="-0.0333" relative="1" as="geometry">
            <mxPoint x="-20" as="offset" />
          </mxGeometry>
        </mxCell>
        <mxCell id="LHL9gRUES2-h29DBD2v1-30" style="edgeStyle=none;shape=connector;rounded=0;orthogonalLoop=1;jettySize=auto;html=1;exitX=0.5;exitY=1;exitDx=0;exitDy=0;strokeColor=default;align=center;verticalAlign=middle;fontFamily=Helvetica;fontSize=11;fontColor=default;labelBackgroundColor=default;endArrow=none;endFill=0;" edge="1" parent="1" source="LHL9gRUES2-h29DBD2v1-8" target="LHL9gRUES2-h29DBD2v1-29">
          <mxGeometry relative="1" as="geometry" />
        </mxCell>
        <mxCell id="LHL9gRUES2-h29DBD2v1-34" value="" style="edgeStyle=none;shape=connector;rounded=0;orthogonalLoop=1;jettySize=auto;html=1;strokeColor=default;align=center;verticalAlign=middle;fontFamily=Helvetica;fontSize=11;fontColor=default;labelBackgroundColor=default;endArrow=none;endFill=0;" edge="1" parent="1" source="LHL9gRUES2-h29DBD2v1-8" target="LHL9gRUES2-h29DBD2v1-29">
          <mxGeometry relative="1" as="geometry" />
        </mxCell>
        <mxCell id="LHL9gRUES2-h29DBD2v1-36" value="&lt;span style=&quot;color: rgba(0, 0, 0, 0); font-family: monospace; font-size: 0px; text-align: start;&quot;&gt;%3CmxGraphModel%3E%3Croot%3E%3CmxCell%20id%3D%220%22%2F%3E%3CmxCell%20id%3D%221%22%20parent%3D%220%22%2F%3E%3CmxCell%20id%3D%222%22%20value%3D%22Text%22%20style%3D%22edgeLabel%3Bhtml%3D1%3Balign%3Dcenter%3BverticalAlign%3Dmiddle%3Bresizable%3D0%3Bpoints%3D%5B%5D%3BfontFamily%3DHelvetica%3BfontSize%3D11%3BfontColor%3Ddefault%3BlabelBackgroundColor%3Ddefault%3B%22%20vertex%3D%221%22%20connectable%3D%220%22%20parent%3D%221%22%3E%3CmxGeometry%20x%3D%2233%22%20y%3D%22266.66666666666674%22%20as%3D%22geometry%22%2F%3E%3C%2FmxCell%3E%3C%2Froot%3E%3C%2FmxGraphModel%3E&lt;/span&gt;" style="edgeLabel;html=1;align=center;verticalAlign=middle;resizable=0;points=[];fontFamily=Helvetica;fontSize=11;fontColor=default;labelBackgroundColor=default;" connectable="0" vertex="1" parent="LHL9gRUES2-h29DBD2v1-34">
          <mxGeometry x="-0.0762" y="1" relative="1" as="geometry">
            <mxPoint as="offset" />
          </mxGeometry>
        </mxCell>
        <mxCell id="LHL9gRUES2-h29DBD2v1-40" value="&lt;font style=&quot;font-size: 12px;&quot;&gt;&lt;b&gt;(1,N)&lt;/b&gt;&lt;/font&gt;" style="edgeLabel;html=1;align=center;verticalAlign=middle;resizable=0;points=[];fontFamily=Helvetica;fontSize=11;fontColor=default;labelBackgroundColor=default;" connectable="0" vertex="1" parent="LHL9gRUES2-h29DBD2v1-34">
          <mxGeometry x="-0.0897" y="2" relative="1" as="geometry">
            <mxPoint x="-22" as="offset" />
          </mxGeometry>
        </mxCell>
        <mxCell id="LHL9gRUES2-h29DBD2v1-43" style="edgeStyle=none;shape=connector;rounded=0;orthogonalLoop=1;jettySize=auto;html=1;exitX=1;exitY=0.5;exitDx=0;exitDy=0;entryX=0;entryY=0.5;entryDx=0;entryDy=0;strokeColor=default;align=center;verticalAlign=middle;fontFamily=Helvetica;fontSize=11;fontColor=default;labelBackgroundColor=default;endArrow=none;endFill=0;" edge="1" parent="1" source="LHL9gRUES2-h29DBD2v1-8" target="LHL9gRUES2-h29DBD2v1-42">
          <mxGeometry relative="1" as="geometry" />
        </mxCell>
        <mxCell id="LHL9gRUES2-h29DBD2v1-46" value="&lt;b style=&quot;font-size: 12px;&quot;&gt;(1,N)&lt;/b&gt;" style="edgeLabel;html=1;align=center;verticalAlign=middle;resizable=0;points=[];fontFamily=Helvetica;fontSize=11;fontColor=default;labelBackgroundColor=default;" connectable="0" vertex="1" parent="LHL9gRUES2-h29DBD2v1-43">
          <mxGeometry x="-0.0516" y="-3" relative="1" as="geometry">
            <mxPoint y="-13" as="offset" />
          </mxGeometry>
        </mxCell>
        <mxCell id="LHL9gRUES2-h29DBD2v1-88" style="edgeStyle=none;shape=connector;rounded=0;orthogonalLoop=1;jettySize=auto;html=1;exitX=0;exitY=0;exitDx=0;exitDy=0;entryX=1;entryY=0.5;entryDx=0;entryDy=0;strokeColor=default;align=center;verticalAlign=middle;fontFamily=Helvetica;fontSize=11;fontColor=default;labelBackgroundColor=default;endArrow=none;endFill=0;" edge="1" parent="1" source="LHL9gRUES2-h29DBD2v1-8" target="LHL9gRUES2-h29DBD2v1-87">
          <mxGeometry relative="1" as="geometry" />
        </mxCell>
        <mxCell id="LHL9gRUES2-h29DBD2v1-96" style="edgeStyle=none;shape=connector;rounded=0;orthogonalLoop=1;jettySize=auto;html=1;exitX=0;exitY=0.25;exitDx=0;exitDy=0;entryX=1;entryY=0.5;entryDx=0;entryDy=0;strokeColor=default;align=center;verticalAlign=middle;fontFamily=Helvetica;fontSize=11;fontColor=default;labelBackgroundColor=default;endArrow=none;endFill=0;" edge="1" parent="1" source="LHL9gRUES2-h29DBD2v1-8" target="LHL9gRUES2-h29DBD2v1-92">
          <mxGeometry relative="1" as="geometry" />
        </mxCell>
        <mxCell id="LHL9gRUES2-h29DBD2v1-97" style="edgeStyle=none;shape=connector;rounded=0;orthogonalLoop=1;jettySize=auto;html=1;exitX=0;exitY=0.5;exitDx=0;exitDy=0;entryX=1;entryY=0.5;entryDx=0;entryDy=0;strokeColor=default;align=center;verticalAlign=middle;fontFamily=Helvetica;fontSize=11;fontColor=default;labelBackgroundColor=default;endArrow=none;endFill=0;" edge="1" parent="1" source="LHL9gRUES2-h29DBD2v1-8" target="LHL9gRUES2-h29DBD2v1-89">
          <mxGeometry relative="1" as="geometry" />
        </mxCell>
        <mxCell id="LHL9gRUES2-h29DBD2v1-98" style="edgeStyle=none;shape=connector;rounded=0;orthogonalLoop=1;jettySize=auto;html=1;exitX=0;exitY=0.75;exitDx=0;exitDy=0;entryX=1;entryY=0.5;entryDx=0;entryDy=0;strokeColor=default;align=center;verticalAlign=middle;fontFamily=Helvetica;fontSize=11;fontColor=default;labelBackgroundColor=default;endArrow=none;endFill=0;" edge="1" parent="1" source="LHL9gRUES2-h29DBD2v1-8" target="LHL9gRUES2-h29DBD2v1-90">
          <mxGeometry relative="1" as="geometry" />
        </mxCell>
        <mxCell id="LHL9gRUES2-h29DBD2v1-101" style="edgeStyle=none;shape=connector;rounded=0;orthogonalLoop=1;jettySize=auto;html=1;exitX=0.177;exitY=0.992;exitDx=0;exitDy=0;entryX=1;entryY=0;entryDx=0;entryDy=0;strokeColor=default;align=center;verticalAlign=middle;fontFamily=Helvetica;fontSize=11;fontColor=default;labelBackgroundColor=default;endArrow=none;endFill=0;exitPerimeter=0;" edge="1" parent="1" source="LHL9gRUES2-h29DBD2v1-8" target="LHL9gRUES2-h29DBD2v1-93">
          <mxGeometry relative="1" as="geometry" />
        </mxCell>
        <mxCell id="LHL9gRUES2-h29DBD2v1-102" style="edgeStyle=none;shape=connector;rounded=0;orthogonalLoop=1;jettySize=auto;html=1;exitX=0.25;exitY=1;exitDx=0;exitDy=0;strokeColor=default;align=center;verticalAlign=middle;fontFamily=Helvetica;fontSize=11;fontColor=default;labelBackgroundColor=default;endArrow=none;endFill=0;entryX=0.963;entryY=0.256;entryDx=0;entryDy=0;entryPerimeter=0;" edge="1" parent="1" source="LHL9gRUES2-h29DBD2v1-8" target="LHL9gRUES2-h29DBD2v1-94">
          <mxGeometry relative="1" as="geometry" />
        </mxCell>
        <mxCell id="LHL9gRUES2-h29DBD2v1-8" value="Livros" style="shape=ext;margin=3;double=1;whiteSpace=wrap;html=1;align=center;" vertex="1" parent="1">
          <mxGeometry x="-20" y="200" width="100" height="40" as="geometry" />
        </mxCell>
        <mxCell id="LHL9gRUES2-h29DBD2v1-116" style="edgeStyle=none;shape=connector;rounded=0;orthogonalLoop=1;jettySize=auto;html=1;exitX=0.75;exitY=0;exitDx=0;exitDy=0;entryX=0.5;entryY=1;entryDx=0;entryDy=0;strokeColor=default;align=center;verticalAlign=middle;fontFamily=Helvetica;fontSize=11;fontColor=default;labelBackgroundColor=default;endArrow=none;endFill=0;" edge="1" parent="1" source="LHL9gRUES2-h29DBD2v1-9" target="LHL9gRUES2-h29DBD2v1-113">
          <mxGeometry relative="1" as="geometry" />
        </mxCell>
        <mxCell id="LHL9gRUES2-h29DBD2v1-9" value="Estoque" style="shape=ext;margin=3;double=1;whiteSpace=wrap;html=1;align=center;" vertex="1" parent="1">
          <mxGeometry x="330" y="200" width="100" height="40" as="geometry" />
        </mxCell>
        <mxCell id="LHL9gRUES2-h29DBD2v1-76" style="edgeStyle=none;shape=connector;rounded=0;orthogonalLoop=1;jettySize=auto;html=1;exitX=0.437;exitY=1.008;exitDx=0;exitDy=0;entryX=0.5;entryY=0;entryDx=0;entryDy=0;strokeColor=default;align=center;verticalAlign=middle;fontFamily=Helvetica;fontSize=11;fontColor=default;labelBackgroundColor=default;endArrow=none;endFill=0;exitPerimeter=0;" edge="1" parent="1" source="LHL9gRUES2-h29DBD2v1-10" target="LHL9gRUES2-h29DBD2v1-69">
          <mxGeometry relative="1" as="geometry" />
        </mxCell>
        <mxCell id="LHL9gRUES2-h29DBD2v1-10" value="Pessoa jurÃ­dica" style="whiteSpace=wrap;html=1;align=center;" vertex="1" parent="1">
          <mxGeometry x="-310" y="320" width="100" height="40" as="geometry" />
        </mxCell>
        <mxCell id="LHL9gRUES2-h29DBD2v1-74" style="edgeStyle=none;shape=connector;rounded=0;orthogonalLoop=1;jettySize=auto;html=1;exitX=0.33;exitY=1.042;exitDx=0;exitDy=0;strokeColor=default;align=center;verticalAlign=middle;fontFamily=Helvetica;fontSize=11;fontColor=default;labelBackgroundColor=default;endArrow=none;endFill=0;exitPerimeter=0;" edge="1" parent="1" source="LHL9gRUES2-h29DBD2v1-11" target="LHL9gRUES2-h29DBD2v1-70">
          <mxGeometry relative="1" as="geometry" />
        </mxCell>
        <mxCell id="LHL9gRUES2-h29DBD2v1-75" style="edgeStyle=none;shape=connector;rounded=0;orthogonalLoop=1;jettySize=auto;html=1;exitX=0.67;exitY=1.008;exitDx=0;exitDy=0;entryX=0.5;entryY=0;entryDx=0;entryDy=0;strokeColor=default;align=center;verticalAlign=middle;fontFamily=Helvetica;fontSize=11;fontColor=default;labelBackgroundColor=default;endArrow=none;endFill=0;exitPerimeter=0;" edge="1" parent="1" source="LHL9gRUES2-h29DBD2v1-11" target="LHL9gRUES2-h29DBD2v1-71">
          <mxGeometry relative="1" as="geometry" />
        </mxCell>
        <mxCell id="LHL9gRUES2-h29DBD2v1-11" value="Pessoa fÃ­sica&amp;nbsp;" style="whiteSpace=wrap;html=1;align=center;" vertex="1" parent="1">
          <mxGeometry x="-490" y="320" width="100" height="40" as="geometry" />
        </mxCell>
        <mxCell id="LHL9gRUES2-h29DBD2v1-14" style="edgeStyle=none;shape=connector;rounded=0;orthogonalLoop=1;jettySize=auto;html=1;exitX=0.5;exitY=1;exitDx=0;exitDy=0;strokeColor=default;align=center;verticalAlign=middle;fontFamily=Helvetica;fontSize=11;fontColor=default;labelBackgroundColor=default;endArrow=none;endFill=0;entryX=0.5;entryY=0;entryDx=0;entryDy=0;" edge="1" parent="1" target="LHL9gRUES2-h29DBD2v1-3">
          <mxGeometry relative="1" as="geometry">
            <mxPoint x="-350.29" y="52" as="sourcePoint" />
            <mxPoint x="-350" y="150" as="targetPoint" />
          </mxGeometry>
        </mxCell>
        <mxCell id="LHL9gRUES2-h29DBD2v1-18" value="&lt;b style=&quot;&quot;&gt;&lt;font style=&quot;font-size: 12px;&quot;&gt;(1,1)&lt;/font&gt;&lt;/b&gt;" style="edgeLabel;html=1;align=center;verticalAlign=middle;resizable=0;points=[];fontFamily=Helvetica;fontSize=11;fontColor=default;labelBackgroundColor=default;" connectable="0" vertex="1" parent="LHL9gRUES2-h29DBD2v1-14">
          <mxGeometry x="-0.0635" y="-2" relative="1" as="geometry">
            <mxPoint x="-18" as="offset" />
          </mxGeometry>
        </mxCell>
        <mxCell id="LHL9gRUES2-h29DBD2v1-12" value="Faz" style="shape=rhombus;perimeter=rhombusPerimeter;whiteSpace=wrap;html=1;align=center;" vertex="1" parent="1">
          <mxGeometry x="-400" y="-8" width="100" height="60" as="geometry" />
        </mxCell>
        <mxCell id="LHL9gRUES2-h29DBD2v1-19" value="" style="triangle;whiteSpace=wrap;html=1;fontFamily=Helvetica;fontSize=11;fontColor=default;labelBackgroundColor=default;rotation=-90;" vertex="1" parent="1">
          <mxGeometry x="-360" y="260" width="20" height="30" as="geometry" />
        </mxCell>
        <mxCell id="LHL9gRUES2-h29DBD2v1-21" style="edgeStyle=none;shape=connector;rounded=0;orthogonalLoop=1;jettySize=auto;html=1;entryX=-0.004;entryY=0.073;entryDx=0;entryDy=0;entryPerimeter=0;strokeColor=default;align=center;verticalAlign=middle;fontFamily=Helvetica;fontSize=11;fontColor=default;labelBackgroundColor=default;endArrow=none;endFill=0;exitX=0.5;exitY=0;exitDx=0;exitDy=0;" edge="1" parent="1" source="LHL9gRUES2-h29DBD2v1-11" target="LHL9gRUES2-h29DBD2v1-19">
          <mxGeometry relative="1" as="geometry">
            <mxPoint x="-450" y="330" as="sourcePoint" />
          </mxGeometry>
        </mxCell>
        <mxCell id="LHL9gRUES2-h29DBD2v1-22" style="edgeStyle=none;shape=connector;rounded=0;orthogonalLoop=1;jettySize=auto;html=1;exitX=0.5;exitY=0;exitDx=0;exitDy=0;entryX=-0.004;entryY=0.957;entryDx=0;entryDy=0;entryPerimeter=0;strokeColor=default;align=center;verticalAlign=middle;fontFamily=Helvetica;fontSize=11;fontColor=default;labelBackgroundColor=default;endArrow=none;endFill=0;" edge="1" parent="1" source="LHL9gRUES2-h29DBD2v1-10" target="LHL9gRUES2-h29DBD2v1-19">
          <mxGeometry relative="1" as="geometry" />
        </mxCell>
        <mxCell id="LHL9gRUES2-h29DBD2v1-23" value="Item_Pedido" style="shape=associativeEntity;whiteSpace=wrap;html=1;align=center;fontFamily=Helvetica;fontSize=11;fontColor=default;labelBackgroundColor=default;" vertex="1" parent="1">
          <mxGeometry x="-25" y="100" width="110" height="40" as="geometry" />
        </mxCell>
        <mxCell id="LHL9gRUES2-h29DBD2v1-29" value="Pertence" style="shape=rhombus;perimeter=rhombusPerimeter;whiteSpace=wrap;html=1;align=center;" vertex="1" parent="1">
          <mxGeometry x="-20" y="310" width="100" height="60" as="geometry" />
        </mxCell>
        <mxCell id="LHL9gRUES2-h29DBD2v1-44" style="edgeStyle=none;shape=connector;rounded=0;orthogonalLoop=1;jettySize=auto;html=1;exitX=1;exitY=0.5;exitDx=0;exitDy=0;entryX=0;entryY=0.5;entryDx=0;entryDy=0;strokeColor=default;align=center;verticalAlign=middle;fontFamily=Helvetica;fontSize=11;fontColor=default;labelBackgroundColor=default;endArrow=none;endFill=0;" edge="1" parent="1" source="LHL9gRUES2-h29DBD2v1-42" target="LHL9gRUES2-h29DBD2v1-9">
          <mxGeometry relative="1" as="geometry" />
        </mxCell>
        <mxCell id="LHL9gRUES2-h29DBD2v1-47" value="&lt;b style=&quot;font-size: 12px;&quot;&gt;(0,1)&lt;/b&gt;" style="edgeLabel;html=1;align=center;verticalAlign=middle;resizable=0;points=[];fontFamily=Helvetica;fontSize=11;fontColor=default;labelBackgroundColor=default;" connectable="0" vertex="1" parent="LHL9gRUES2-h29DBD2v1-44">
          <mxGeometry x="0.0765" relative="1" as="geometry">
            <mxPoint y="-10" as="offset" />
          </mxGeometry>
        </mxCell>
        <mxCell id="LHL9gRUES2-h29DBD2v1-42" value="Existe" style="shape=rhombus;perimeter=rhombusPerimeter;whiteSpace=wrap;html=1;align=center;" vertex="1" parent="1">
          <mxGeometry x="160" y="190" width="100" height="60" as="geometry" />
        </mxCell>
        <mxCell id="LHL9gRUES2-h29DBD2v1-52" value="Cidade" style="ellipse;whiteSpace=wrap;html=1;align=center;fontFamily=Helvetica;fontSize=11;fontColor=default;labelBackgroundColor=default;" vertex="1" parent="1">
          <mxGeometry x="-620" y="210" width="80" height="30" as="geometry" />
        </mxCell>
        <mxCell id="LHL9gRUES2-h29DBD2v1-53" value="Bairro" style="ellipse;whiteSpace=wrap;html=1;align=center;fontFamily=Helvetica;fontSize=11;fontColor=default;labelBackgroundColor=default;" vertex="1" parent="1">
          <mxGeometry x="-620" y="180" width="80" height="30" as="geometry" />
        </mxCell>
        <mxCell id="LHL9gRUES2-h29DBD2v1-54" value="Rua" style="ellipse;whiteSpace=wrap;html=1;align=center;fontFamily=Helvetica;fontSize=11;fontColor=default;labelBackgroundColor=default;" vertex="1" parent="1">
          <mxGeometry x="-620" y="150" width="80" height="30" as="geometry" />
        </mxCell>
        <mxCell id="LHL9gRUES2-h29DBD2v1-55" value="Nome" style="ellipse;whiteSpace=wrap;html=1;align=center;fontFamily=Helvetica;fontSize=11;fontColor=default;labelBackgroundColor=default;" vertex="1" parent="1">
          <mxGeometry x="-540" y="60" width="80" height="30" as="geometry" />
        </mxCell>
        <mxCell id="LHL9gRUES2-h29DBD2v1-57" value="e-mail" style="ellipse;whiteSpace=wrap;html=1;align=center;fontFamily=Helvetica;fontSize=11;fontColor=default;labelBackgroundColor=default;" vertex="1" parent="1">
          <mxGeometry x="-540" y="120" width="80" height="30" as="geometry" />
        </mxCell>
        <mxCell id="LHL9gRUES2-h29DBD2v1-65" style="edgeStyle=none;shape=connector;rounded=0;orthogonalLoop=1;jettySize=auto;html=1;exitX=0;exitY=0;exitDx=0;exitDy=0;entryX=1;entryY=0.5;entryDx=0;entryDy=0;strokeColor=default;align=center;verticalAlign=middle;fontFamily=Helvetica;fontSize=11;fontColor=default;labelBackgroundColor=default;endArrow=none;endFill=0;" edge="1" parent="1" source="LHL9gRUES2-h29DBD2v1-58" target="LHL9gRUES2-h29DBD2v1-54">
          <mxGeometry relative="1" as="geometry" />
        </mxCell>
        <mxCell id="LHL9gRUES2-h29DBD2v1-66" style="edgeStyle=none;shape=connector;rounded=0;orthogonalLoop=1;jettySize=auto;html=1;exitX=0;exitY=0.5;exitDx=0;exitDy=0;entryX=1;entryY=0.5;entryDx=0;entryDy=0;strokeColor=default;align=center;verticalAlign=middle;fontFamily=Helvetica;fontSize=11;fontColor=default;labelBackgroundColor=default;endArrow=none;endFill=0;" edge="1" parent="1" source="LHL9gRUES2-h29DBD2v1-58" target="LHL9gRUES2-h29DBD2v1-53">
          <mxGeometry relative="1" as="geometry" />
        </mxCell>
        <mxCell id="LHL9gRUES2-h29DBD2v1-67" style="edgeStyle=none;shape=connector;rounded=0;orthogonalLoop=1;jettySize=auto;html=1;exitX=0;exitY=1;exitDx=0;exitDy=0;entryX=1;entryY=0.5;entryDx=0;entryDy=0;strokeColor=default;align=center;verticalAlign=middle;fontFamily=Helvetica;fontSize=11;fontColor=default;labelBackgroundColor=default;endArrow=none;endFill=0;" edge="1" parent="1" source="LHL9gRUES2-h29DBD2v1-58" target="LHL9gRUES2-h29DBD2v1-52">
          <mxGeometry relative="1" as="geometry" />
        </mxCell>
        <mxCell id="LHL9gRUES2-h29DBD2v1-58" value="EndereÃ§o" style="ellipse;whiteSpace=wrap;html=1;align=center;fontFamily=Helvetica;fontSize=11;fontColor=default;labelBackgroundColor=default;" vertex="1" parent="1">
          <mxGeometry x="-520" y="190" width="80" height="30" as="geometry" />
        </mxCell>
        <mxCell id="LHL9gRUES2-h29DBD2v1-61" style="edgeStyle=none;shape=connector;rounded=0;orthogonalLoop=1;jettySize=auto;html=1;exitX=1;exitY=0.5;exitDx=0;exitDy=0;entryX=0.123;entryY=-0.042;entryDx=0;entryDy=0;entryPerimeter=0;strokeColor=default;align=center;verticalAlign=middle;fontFamily=Helvetica;fontSize=11;fontColor=default;labelBackgroundColor=default;endArrow=none;endFill=0;" edge="1" parent="1" source="LHL9gRUES2-h29DBD2v1-57" target="LHL9gRUES2-h29DBD2v1-3">
          <mxGeometry relative="1" as="geometry" />
        </mxCell>
        <mxCell id="LHL9gRUES2-h29DBD2v1-62" value="Telefone" style="ellipse;shape=doubleEllipse;margin=3;whiteSpace=wrap;html=1;align=center;fontFamily=Helvetica;fontSize=11;fontColor=default;labelBackgroundColor=default;" vertex="1" parent="1">
          <mxGeometry x="-540" y="90" width="80" height="30" as="geometry" />
        </mxCell>
        <mxCell id="LHL9gRUES2-h29DBD2v1-64" value="Estado" style="ellipse;whiteSpace=wrap;html=1;align=center;fontFamily=Helvetica;fontSize=11;fontColor=default;labelBackgroundColor=default;" vertex="1" parent="1">
          <mxGeometry x="-620" y="240" width="80" height="30" as="geometry" />
        </mxCell>
        <mxCell id="LHL9gRUES2-h29DBD2v1-68" style="edgeStyle=none;shape=connector;rounded=0;orthogonalLoop=1;jettySize=auto;html=1;exitX=0.5;exitY=1;exitDx=0;exitDy=0;entryX=0.988;entryY=0.278;entryDx=0;entryDy=0;entryPerimeter=0;strokeColor=default;align=center;verticalAlign=middle;fontFamily=Helvetica;fontSize=11;fontColor=default;labelBackgroundColor=default;endArrow=none;endFill=0;" edge="1" parent="1" source="LHL9gRUES2-h29DBD2v1-58" target="LHL9gRUES2-h29DBD2v1-64">
          <mxGeometry relative="1" as="geometry" />
        </mxCell>
        <mxCell id="LHL9gRUES2-h29DBD2v1-69" value="CNPJ" style="ellipse;whiteSpace=wrap;html=1;align=center;fontFamily=Helvetica;fontSize=11;fontColor=default;labelBackgroundColor=default;" vertex="1" parent="1">
          <mxGeometry x="-330" y="380" width="80" height="30" as="geometry" />
        </mxCell>
        <mxCell id="LHL9gRUES2-h29DBD2v1-70" value="CPF" style="ellipse;whiteSpace=wrap;html=1;align=center;fontFamily=Helvetica;fontSize=11;fontColor=default;labelBackgroundColor=default;" vertex="1" parent="1">
          <mxGeometry x="-540" y="380" width="80" height="30" as="geometry" />
        </mxCell>
        <mxCell id="LHL9gRUES2-h29DBD2v1-71" value="RG" style="ellipse;whiteSpace=wrap;html=1;align=center;fontFamily=Helvetica;fontSize=11;fontColor=default;labelBackgroundColor=default;" vertex="1" parent="1">
          <mxGeometry x="-450" y="380" width="80" height="30" as="geometry" />
        </mxCell>
        <mxCell id="LHL9gRUES2-h29DBD2v1-72" value="IE" style="ellipse;whiteSpace=wrap;html=1;align=center;fontFamily=Helvetica;fontSize=11;fontColor=default;labelBackgroundColor=default;" vertex="1" parent="1">
          <mxGeometry x="-240" y="380" width="80" height="30" as="geometry" />
        </mxCell>
        <mxCell id="LHL9gRUES2-h29DBD2v1-77" style="edgeStyle=none;shape=connector;rounded=0;orthogonalLoop=1;jettySize=auto;html=1;exitX=0.75;exitY=1;exitDx=0;exitDy=0;entryX=0.363;entryY=0.056;entryDx=0;entryDy=0;entryPerimeter=0;strokeColor=default;align=center;verticalAlign=middle;fontFamily=Helvetica;fontSize=11;fontColor=default;labelBackgroundColor=default;endArrow=none;endFill=0;" edge="1" parent="1" source="LHL9gRUES2-h29DBD2v1-10" target="LHL9gRUES2-h29DBD2v1-72">
          <mxGeometry relative="1" as="geometry" />
        </mxCell>
        <mxCell id="LHL9gRUES2-h29DBD2v1-78" value="Cod_pedido" style="ellipse;whiteSpace=wrap;html=1;align=center;fontStyle=4;fontFamily=Helvetica;fontSize=11;fontColor=default;labelBackgroundColor=default;" vertex="1" parent="1">
          <mxGeometry x="-115" y="-70" width="90" height="30" as="geometry" />
        </mxCell>
        <mxCell id="LHL9gRUES2-h29DBD2v1-79" value="Cod_cliente" style="ellipse;whiteSpace=wrap;html=1;align=center;fontStyle=4;fontFamily=Helvetica;fontSize=11;fontColor=default;labelBackgroundColor=default;" vertex="1" parent="1">
          <mxGeometry x="-130" y="-38" width="90" height="30" as="geometry" />
        </mxCell>
        <mxCell id="LHL9gRUES2-h29DBD2v1-81" style="edgeStyle=none;shape=connector;rounded=0;orthogonalLoop=1;jettySize=auto;html=1;exitX=0.25;exitY=0;exitDx=0;exitDy=0;entryX=0.745;entryY=0.878;entryDx=0;entryDy=0;entryPerimeter=0;strokeColor=default;align=center;verticalAlign=middle;fontFamily=Helvetica;fontSize=11;fontColor=default;labelBackgroundColor=default;endArrow=none;endFill=0;" edge="1" parent="1" source="LHL9gRUES2-h29DBD2v1-7" target="LHL9gRUES2-h29DBD2v1-78">
          <mxGeometry relative="1" as="geometry" />
        </mxCell>
        <mxCell id="LHL9gRUES2-h29DBD2v1-82" value="Nome_livro" style="ellipse;whiteSpace=wrap;html=1;align=center;fontFamily=Helvetica;fontSize=11;fontColor=default;labelBackgroundColor=default;" vertex="1" parent="1">
          <mxGeometry x="-150" y="280" width="80" height="30" as="geometry" />
        </mxCell>
        <mxCell id="LHL9gRUES2-h29DBD2v1-83" value="Valor_pedido" style="ellipse;whiteSpace=wrap;html=1;align=center;fontFamily=Helvetica;fontSize=11;fontColor=default;labelBackgroundColor=default;" vertex="1" parent="1">
          <mxGeometry x="60" y="-50" width="80" height="30" as="geometry" />
        </mxCell>
        <mxCell id="LHL9gRUES2-h29DBD2v1-84" value="Data" style="ellipse;whiteSpace=wrap;html=1;align=center;fontFamily=Helvetica;fontSize=11;fontColor=default;labelBackgroundColor=default;" vertex="1" parent="1">
          <mxGeometry x="-20" y="-68" width="80" height="30" as="geometry" />
        </mxCell>
        <mxCell id="LHL9gRUES2-h29DBD2v1-87" value="Cod_editora" style="ellipse;whiteSpace=wrap;html=1;align=center;fontStyle=4;fontFamily=Helvetica;fontSize=11;fontColor=default;labelBackgroundColor=default;" vertex="1" parent="1">
          <mxGeometry x="-150" y="130" width="80" height="30" as="geometry" />
        </mxCell>
        <mxCell id="LHL9gRUES2-h29DBD2v1-89" value="Valor" style="ellipse;whiteSpace=wrap;html=1;align=center;fontFamily=Helvetica;fontSize=11;fontColor=default;labelBackgroundColor=default;" vertex="1" parent="1">
          <mxGeometry x="-150" y="190" width="80" height="30" as="geometry" />
        </mxCell>
        <mxCell id="LHL9gRUES2-h29DBD2v1-90" value="Ano_publica." style="ellipse;whiteSpace=wrap;html=1;align=center;fontFamily=Helvetica;fontSize=11;fontColor=default;labelBackgroundColor=default;" vertex="1" parent="1">
          <mxGeometry x="-150" y="220" width="80" height="30" as="geometry" />
        </mxCell>
        <mxCell id="LHL9gRUES2-h29DBD2v1-91" value="Categoria" style="ellipse;whiteSpace=wrap;html=1;align=center;fontFamily=Helvetica;fontSize=11;fontColor=default;labelBackgroundColor=default;" vertex="1" parent="1">
          <mxGeometry x="-150" y="250" width="80" height="30" as="geometry" />
        </mxCell>
        <mxCell id="LHL9gRUES2-h29DBD2v1-92" value="Cod_livro" style="ellipse;whiteSpace=wrap;html=1;align=center;fontStyle=4;fontFamily=Helvetica;fontSize=11;fontColor=default;labelBackgroundColor=default;" vertex="1" parent="1">
          <mxGeometry x="-150" y="160" width="80" height="30" as="geometry" />
        </mxCell>
        <mxCell id="LHL9gRUES2-h29DBD2v1-93" value="TÃ­tulo" style="ellipse;whiteSpace=wrap;html=1;align=center;fontFamily=Helvetica;fontSize=11;fontColor=default;labelBackgroundColor=default;" vertex="1" parent="1">
          <mxGeometry x="-150" y="310" width="80" height="30" as="geometry" />
        </mxCell>
        <mxCell id="LHL9gRUES2-h29DBD2v1-94" value="Autor" style="ellipse;whiteSpace=wrap;html=1;align=center;fontFamily=Helvetica;fontSize=11;fontColor=default;labelBackgroundColor=default;" vertex="1" parent="1">
          <mxGeometry x="-150" y="340" width="80" height="30" as="geometry" />
        </mxCell>
        <mxCell id="LHL9gRUES2-h29DBD2v1-99" style="edgeStyle=none;shape=connector;rounded=0;orthogonalLoop=1;jettySize=auto;html=1;exitX=0;exitY=1;exitDx=0;exitDy=0;entryX=0.963;entryY=0.189;entryDx=0;entryDy=0;entryPerimeter=0;strokeColor=default;align=center;verticalAlign=middle;fontFamily=Helvetica;fontSize=11;fontColor=default;labelBackgroundColor=default;endArrow=none;endFill=0;" edge="1" parent="1" source="LHL9gRUES2-h29DBD2v1-8" target="LHL9gRUES2-h29DBD2v1-91">
          <mxGeometry relative="1" as="geometry" />
        </mxCell>
        <mxCell id="LHL9gRUES2-h29DBD2v1-100" style="edgeStyle=none;shape=connector;rounded=0;orthogonalLoop=1;jettySize=auto;html=1;exitX=0.103;exitY=1.025;exitDx=0;exitDy=0;entryX=0.946;entryY=0.189;entryDx=0;entryDy=0;entryPerimeter=0;strokeColor=default;align=center;verticalAlign=middle;fontFamily=Helvetica;fontSize=11;fontColor=default;labelBackgroundColor=default;endArrow=none;endFill=0;exitPerimeter=0;" edge="1" parent="1" source="LHL9gRUES2-h29DBD2v1-8" target="LHL9gRUES2-h29DBD2v1-82">
          <mxGeometry relative="1" as="geometry" />
        </mxCell>
        <mxCell id="LHL9gRUES2-h29DBD2v1-104" value="Cod_editora" style="ellipse;whiteSpace=wrap;html=1;align=center;fontStyle=4;fontFamily=Helvetica;fontSize=11;fontColor=default;labelBackgroundColor=default;" vertex="1" parent="1">
          <mxGeometry x="-140" y="480" width="80" height="30" as="geometry" />
        </mxCell>
        <mxCell id="LHL9gRUES2-h29DBD2v1-105" value="E-mail" style="ellipse;whiteSpace=wrap;html=1;align=center;fontFamily=Helvetica;fontSize=11;fontColor=default;labelBackgroundColor=default;" vertex="1" parent="1">
          <mxGeometry x="-45" y="520" width="80" height="30" as="geometry" />
        </mxCell>
        <mxCell id="LHL9gRUES2-h29DBD2v1-106" value="Nome_contato" style="ellipse;whiteSpace=wrap;html=1;align=center;fontFamily=Helvetica;fontSize=11;fontColor=default;labelBackgroundColor=default;" vertex="1" parent="1">
          <mxGeometry x="40" y="520" width="80" height="30" as="geometry" />
        </mxCell>
        <mxCell id="LHL9gRUES2-h29DBD2v1-111" style="edgeStyle=none;shape=connector;rounded=0;orthogonalLoop=1;jettySize=auto;html=1;exitX=0.75;exitY=1;exitDx=0;exitDy=0;entryX=0.365;entryY=0.107;entryDx=0;entryDy=0;entryPerimeter=0;strokeColor=default;align=center;verticalAlign=middle;fontFamily=Helvetica;fontSize=11;fontColor=default;labelBackgroundColor=default;endArrow=none;endFill=0;" edge="1" parent="1" source="LHL9gRUES2-h29DBD2v1-5" target="LHL9gRUES2-h29DBD2v1-106">
          <mxGeometry relative="1" as="geometry" />
        </mxCell>
        <mxCell id="LHL9gRUES2-h29DBD2v1-112" value="Telefone" style="ellipse;shape=doubleEllipse;margin=3;whiteSpace=wrap;html=1;align=center;fontFamily=Helvetica;fontSize=11;fontColor=default;labelBackgroundColor=default;" vertex="1" parent="1">
          <mxGeometry x="-125" y="510" width="80" height="30" as="geometry" />
        </mxCell>
        <mxCell id="LHL9gRUES2-h29DBD2v1-113" value="Qtd._estoque" style="ellipse;whiteSpace=wrap;html=1;align=center;fontFamily=Helvetica;fontSize=11;fontColor=default;labelBackgroundColor=default;" vertex="1" parent="1">
          <mxGeometry x="400" y="140" width="80" height="30" as="geometry" />
        </mxCell>
        <mxCell id="LHL9gRUES2-h29DBD2v1-117" style="edgeStyle=none;shape=connector;rounded=0;orthogonalLoop=1;jettySize=auto;html=1;exitX=0;exitY=0;exitDx=0;exitDy=0;entryX=0.5;entryY=1;entryDx=0;entryDy=0;strokeColor=default;align=center;verticalAlign=middle;fontFamily=Helvetica;fontSize=11;fontColor=default;labelBackgroundColor=default;endArrow=none;endFill=0;" edge="1" parent="1" target="LHL9gRUES2-h29DBD2v1-119">
          <mxGeometry relative="1" as="geometry">
            <mxPoint x="370" y="200" as="sourcePoint" />
          </mxGeometry>
        </mxCell>
        <mxCell id="LHL9gRUES2-h29DBD2v1-118" style="edgeStyle=none;shape=connector;rounded=0;orthogonalLoop=1;jettySize=auto;html=1;strokeColor=default;align=center;verticalAlign=middle;fontFamily=Helvetica;fontSize=11;fontColor=default;labelBackgroundColor=default;endArrow=none;endFill=0;" edge="1" parent="1" source="LHL9gRUES2-h29DBD2v1-9" target="LHL9gRUES2-h29DBD2v1-120">
          <mxGeometry relative="1" as="geometry">
            <mxPoint x="370" y="210" as="sourcePoint" />
          </mxGeometry>
        </mxCell>
        <mxCell id="LHL9gRUES2-h29DBD2v1-119" value="Cod_editora" style="ellipse;whiteSpace=wrap;html=1;align=center;fontStyle=4;fontFamily=Helvetica;fontSize=11;fontColor=default;labelBackgroundColor=default;" vertex="1" parent="1">
          <mxGeometry x="320" y="140" width="80" height="30" as="geometry" />
        </mxCell>
        <mxCell id="LHL9gRUES2-h29DBD2v1-120" value="Cod_livro" style="ellipse;whiteSpace=wrap;html=1;align=center;fontStyle=4;fontFamily=Helvetica;fontSize=11;fontColor=default;labelBackgroundColor=default;" vertex="1" parent="1">
          <mxGeometry x="230" y="140" width="80" height="30" as="geometry" />
        </mxCell>
      </root>
    </mxGraphModel>
  </diagram>
</mxfile>
